# xmcd
#
# Track frame offsets: 
#        150
#        27711
#        47771
#        71670
#        88532
#        102829
#        128811
#        153897
#        182130
#        194868
#        214855
#        238350
#
# Disc length: 3430 seconds
#
# Revision: 3
# Processed by: cddbd v1.5.2PL0 Copyright (c) Steve Scherf et al.
# Submitted via: ExactAudioCopy v0.99pb5
#
DISCID=b30d640c
DTITLE=Various Artist - The Weather Channel Presents - Smooth Jazz
DYEAR=2007
DGENRE=Jazz
TTITLE0=Dave Koz - Shakin' The Shack
TTITLE1=3rd Force - The Gift
TTITLE2=Pieces Of A Dream - Ocean View
TTITLE3=Ryan Farish - Holding Hands
TTITLE4=Chick Corea - Windows
TTITLE5=Joyce Cooling - Mildred's Attraction
TTITLE6=Najee - Sidewayz
TTITLE7=Paprika Soul - Bad, Bad Simba
TTITLE8=Mark Krurnowski - Wait A Minute
TTITLE9=Jeanne Ricks - Simple Pleasure
TTITLE10=Four 80 East - Viaduct
TTITLE11=Jeff Lorber - Santa Monica Triangle
EXTD=YEAR: 2007
EXTT0=
EXTT1=
EXTT2=
EXTT3=
EXTT4=
EXTT5=
EXTT6=
EXTT7=
EXTT8=
EXTT9=
EXTT10=
EXTT11=
PLAYORDER=
